<svg xmlns="http://www.w3.org/2000/svg" id="cloud-computing" viewBox="-4 0 512 512.00105"><title>cloud-computing</title><path d="m486.402344 247.464844c-.023438 41.070312-29.273438 76.304687-69.632813 83.882812-5.179687.960938-10.433593 1.445313-15.703125 1.453125h-290.132812c-34.515625.003907-65.632813-20.785156-78.839844-52.671875-13.207031-31.890625-5.902344-68.59375 18.507812-92.992187 1.027344-1.023438 2.050782-2.046875 3.160157-2.988281 7.546875-6.84375 16.28125-12.25 25.769531-15.957032-26.933594-55.046875-4.144531-121.503906 50.902344-148.4375 55.042968-26.933594 121.503906-4.144531 148.4375 50.902344.253906.425781.425781.9375.679687 1.363281 1.117188-.789062 2.285157-1.503906 3.5-2.132812 11.167969-6.675781 23.941407-10.183594 36.949219-10.152344 40.046875.027344 72.507812 32.484375 72.535156 72.53125.019532 10.308594-2.195312 20.496094-6.488281 29.867187h15.019531c47.121094.015626 85.316406 38.210938 85.335938 85.332032zm0 0" fill="#cad9fc"/><path d="m460.585938 250.558594c2.363281 33.164062-14.730469 64.683594-43.816407 80.789062-5.179687.960938-10.433593 1.445313-15.703125 1.453125h-287.480468c-45.441407.539063-83.660157-33.949219-87.769532-79.210937-1.800781-24.703125 7.25-48.964844 24.785156-66.453125 1.027344-1.023438 2.050782-2.046875 3.160157-2.988281 7.546875-6.84375 16.28125-12.25 25.769531-15.957032-26.632812-54.511718-4.550781-120.308594 49.578125-147.710937 47.613281-10.757813 96.671875 10.832031 120.898437 53.210937 2.347657 3.917969 7.355469 5.308594 11.382813 3.15625 5.539063-2.804687 11.410156-4.886718 17.480469-6.191406 1.375-.339844 2.773437-.59375 4.179687-.769531 3.753907-.613281 7.546875-.929688 11.351563-.9375 40.046875.027343 72.503906 32.484375 72.53125 72.535156.007812 6.269531-.804688 12.515625-2.421875 18.574219-.789063 2.636718-.292969 5.492187 1.339843 7.710937 1.632813 2.21875 4.207032 3.546875 6.960938 3.578125 45.445312-.539062 83.664062 33.953125 87.773438 79.210938zm0 0" fill="#e8edfc"/><path d="m391.964844 303.019531c-6.75-72.65625-69.429688-127.164062-142.320313-123.765625-72.890625 3.402344-130.222656 63.511719-130.175781 136.480469-.042969 19.496094 4.148438 38.769531 12.285156 56.488281 20.730469 45.699219 64.882813 76.324219 114.945313 79.734375 2.386719.1875 4.742187-.625 6.507812-2.238281 1.761719-1.617188 2.777344-3.898438 2.792969-6.289062v-127.695313l118.554688 47.421875c2.21875.871094 4.699218.785156 6.851562-.238281 2.15625-1.027344 3.785156-2.898438 4.507812-5.167969 5.714844-17.644531 7.777344-36.265625 6.050782-54.730469zm0 0" fill="#2fa8cc"/><path d="m256 315.734375-124.246094 56.488281c-8.136718-17.71875-12.328125-36.992187-12.285156-56.488281-.050781-41.492187 18.792969-80.75 51.199219-106.667969zm0 0" fill="#a4c2f7"/><path d="m385.878906 357.71875c-.714844 2.277344-2.339844 4.15625-4.488281 5.191406-2.152344 1.035156-4.636719 1.132813-6.863281.269532l-14.164063-5.71875-104.363281-41.726563-85.332031-106.667969c47.074219-37.6875 113.300781-40.027344 162.917969-5.757812 49.621093 34.273437 70.875 97.039062 52.292968 154.410156zm0 0" fill="#cad9fc"/><path d="m360.363281 357.460938-104.363281-41.726563-85.332031-106.667969c20.746093-16.609375 45.902343-26.785156 72.363281-29.269531 1.449219.085937 2.898438.257813 4.351562.425781 40.324219 5.046875 76.300782 27.800782 98.144532 62.066406 21.84375 34.269532 27.28125 76.488282 14.835937 115.171876zm0 0" fill="#e8edfc"/><path d="m256 315.734375v127.65625c-.007812 2.398437-1.015625 4.683594-2.78125 6.304687-1.769531 1.617188-4.128906 2.429688-6.519531 2.230469-6.308594-.417969-12.582031-1.273437-18.773438-2.558593h-.085937c-42.484375-8.949219-78.164063-37.597657-96.085938-77.144532l98.648438-44.882812zm0 0" fill="#cad9fc"/><path d="m230.402344 327.339844v116.050781c.03125 2.25-.863282 4.410156-2.476563 5.976563h-.085937c-42.484375-8.949219-78.164063-37.597657-96.085938-77.144532zm0 0" fill="#e8edfc"/><path d="m413.097656 426.15625c-21.222656 44.285156-64.660156 73.699219-113.664062 76.96875-4.042969.257812-7.742188-2.277344-8.957032-6.144531-.253906-.742188-.367187-1.519531-.34375-2.304688v-115.113281c.007813-2.828125 1.410157-5.46875 3.75-7.054688 2.339844-1.589843 5.3125-1.917968 7.941407-.882812l106.835937 42.753906c2.21875.894532 3.957032 2.679688 4.800782 4.914063.84375 2.238281.710937 4.726562-.363282 6.863281zm0 0" fill="#7facfa"/><path d="m387.5 422.058594c-18.664062 38.921875-54.648438 66.707031-97.023438 74.921875-.253906-.742188-.367187-1.519531-.34375-2.304688v-115.113281c0-2.074219.757813-4.078125 2.132813-5.632812l90.796875 36.351562c2.210938.902344 3.945312 2.6875 4.789062 4.921875.839844 2.234375.714844 4.71875-.351562 6.855469zm0 0" fill="#a4c2f7"/><path d="m25.777344 250.925781c.03125.894531-.023438 1.765625.039062 2.664063.03125.457031.121094.890625.160156 1.34375.117188 1.363281.308594 2.703125.492188 4.046875.191406 1.414062.378906 2.824219.644531 4.210937.304688 1.640625.695313 3.25 1.09375 4.855469.226563.898437.433594 1.800781.691407 2.6875 10.402343 36.695313 43.894531 62.03125 82.035156 62.066406h9.691406c1.667969 13.632813 5.421875 26.929688 11.128906 39.421875 2.007813 4.359375 4.242188 8.605469 6.695313 12.726563.425781.722656.828125 1.460937 1.265625 2.175781 2.332031 3.800781 4.863281 7.460938 7.550781 11.007812.660156.871094 1.328125 1.730469 2.007813 2.585938 2.71875 3.417969 5.574218 6.71875 8.601562 9.859375.71875.742187 1.46875 1.445313 2.199219 2.171875 3.015625 2.984375 6.136719 5.859375 9.417969 8.554688.589843.480468 1.175781.953124 1.769531 1.425781 3.300781 2.621093 6.753906 5.0625 10.296875 7.375.890625.582031 1.761718 1.183593 2.667968 1.746093 3.695313 2.292969 7.523438 4.382813 11.449219 6.324219 1.03125.511719 2.0625 1.003907 3.109375 1.484375 4.035156 1.867188 8.15625 3.566406 12.394532 5.039063.867187.304687 1.753906.558593 2.625.84375 4.53125 1.496093 9.140624 2.75 13.800781 3.761719l.234375.0625h.027344c6.210937 1.296874 12.503906 2.164062 18.832031 2.589843 2.527343.160157 4.996093-.785156 6.769531-2.589843h-.027344l-.234375-.066407c-4.664062-1.007812-9.269531-2.265625-13.800781-3.761719-.875-.285156-1.757812-.539062-2.625-.839843-4.238281-1.472657-8.363281-3.171875-12.394531-5.039063-1.046875-.484375-2.082031-.980468-3.113281-1.488281-3.925782-1.9375-7.75-4.03125-11.449219-6.320313-.90625-.5625-1.773438-1.167968-2.664063-1.75-3.542968-2.3125-7-4.75-10.300781-7.375-.597656-.46875-1.179687-.945312-1.765625-1.425781-3.28125-2.695312-6.398438-5.570312-9.417969-8.554687-.734375-.726563-1.480469-1.429688-2.199219-2.171875-3.03125-3.140625-5.886718-6.441407-8.605468-9.859375-.683594-.851563-1.347656-1.714844-2.003906-2.585938-2.6875-3.542968-5.21875-7.203125-7.554688-11.007812-.4375-.714844-.839844-1.449219-1.265625-2.175782-2.453125-4.117187-4.6875-8.367187-6.691406-12.722656-5.710938-12.492187-9.464844-25.789062-11.128907-39.421875h-9.691406c-38.144531-.035156-71.632812-25.371093-82.035156-62.066406-.257812-.886719-.464844-1.792969-.691406-2.6875-.402344-1.605469-.789063-3.214844-1.097656-4.855469-.261719-1.386718-.449219-2.796875-.640626-4.210937-.183593-1.34375-.375-2.683594-.492187-4.046875-.039063-.453125-.132813-.886719-.164063-1.34375-.0625-.898438 0-1.769532-.039062-2.664063-.046875-1.15625-.175781-2.292969-.175781-3.460937 0-.632813.085937-1.246094.097656-1.875.027344-1.339844.109375-2.660156.199219-3.980469.117187-1.710937.269531-3.414063.484375-5.09375.171875-1.308594.371093-2.605469.597656-3.898437.292969-1.652344.632813-3.28125 1.019531-4.902344.296875-1.257813.609375-2.507813.964844-3.746094.457031-1.605469.980469-3.179688 1.535156-4.746094.417969-1.1875.828125-2.375 1.296875-3.539062.628907-1.5625 1.332031-3.082032 2.046875-4.597656.519532-1.097657 1.011719-2.203126 1.574219-3.273438.8125-1.542969 1.714844-3.023438 2.617187-4.507812.585938-.96875 1.136719-1.964844 1.765626-2.902344 1.058593-1.597656 2.21875-3.117188 3.375-4.636719.574218-.75 1.101562-1.535156 1.699218-2.269531 1.808594-2.210938 3.710938-4.339844 5.730469-6.355469 1.023437-1.023437 2.046875-2.046875 3.15625-2.988281 7.546875-6.84375 16.28125-12.25 25.769531-15.957032-15.8125-32.304687-14.972656-70.277343 2.253906-101.851562 17.222657-31.578125 48.695313-52.839844 84.421876-57.03125-31.410157-3.632812-62.878907 6.324219-86.476563 27.367188-23.601563 21.042968-37.085937 51.167968-37.0625 82.785156-.035156 16.894531 3.816406 33.566406 11.265625 48.726562-9.488281 3.707032-18.222656 9.113282-25.769531 15.957032-1.109375.941406-2.132813 1.964843-3.160157 2.988281-2.015624 2.015625-3.917968 4.144531-5.726562 6.355469-.597656.730468-1.125 1.519531-1.699219 2.269531-1.160156 1.519531-2.320312 3.039062-3.378906 4.636719-.625.9375-1.175781 1.933593-1.765625 2.902343-.902344 1.484375-1.800781 2.964844-2.613281 4.507813-.5625 1.070312-1.058594 2.175781-1.574219 3.273437-.71875 1.515625-1.425781 3.035157-2.054688 4.597657-.46875 1.164062-.878906 2.351562-1.296874 3.539062-.550782 1.566406-1.074219 3.140625-1.535157 4.746094-.355469 1.238281-.664062 2.488281-.964843 3.746094-.382813 1.621093-.722657 3.25-1.015626 4.902343-.226562 1.292969-.425781 2.585938-.597656 3.898438-.21875 1.683593-.371094 3.382812-.484375 5.09375-.089843 1.320312-.171875 2.644531-.203125 3.980469-.003906.632812-.089844 1.246093-.089844 1.878906 0 1.167968.128907 2.304687.175782 3.460937zm0 0" fill="#fff"/><path d="m179.199219 17.066406c-17.136719.144532-33.984375 4.445313-49.097657 12.535156-32.785156 18.035157-53.195312 52.445313-53.300781 89.863282h-17.066406c.105469-43.652344 23.917969-83.804688 62.171875-104.835938 17.625-9.460937 37.289062-14.480468 57.292969-14.628906zm0 0" fill="#fff"/><g fill="#428dff"><path d="m108.382812 34.09375c1.488282 1.695312 3.507813 2.835938 5.726563 3.238281 2.113281.324219 4.269531-.179687 6.019531-1.410156 1.648438-1.316406 2.824219-3.132813 3.339844-5.179687l.15625-1.589844c.015625-.570313-.042969-1.140625-.167969-1.699219-.050781-.539063-.175781-1.070313-.371093-1.574219-.210938-.53125-.453126-1.046875-.734376-1.546875-1.1875-1.949219-3.113281-3.332031-5.339843-3.839843-2.363281-.445313-4.804688.085937-6.769531 1.46875-1.96875 1.386718-3.289063 3.507812-3.667969 5.882812-.140625 1.109375-.050781 2.238281.273437 3.308594.304688 1.074218.828125 2.078125 1.535156 2.941406zm0 0"/><path d="m68.445312 163.84375c-31.539062 15.941406-51.414062 48.285156-51.378906 83.621094.058594 51.820312 42.050782 93.808594 93.867188 93.867187h2.433594c2.058593 11.878907 5.625 23.449219 10.617187 34.421875 23.574219 51.738282 75.160156 84.972656 132.015625 85.046875 4.714844 0 8.535156-3.820312 8.535156-8.535156v-123.925781l115.015625 46.007812c1.007813.402344 2.082031.609375 3.167969.609375l.066406-.007812c.09375 0 .179688-.039063.273438-.042969 1.910156-.113281 3.730468-.851562 5.183594-2.097656.242187-.195313.476562-.402344.695312-.625.660156-.699219 1.199219-1.507813 1.589844-2.390625.019531-.050781.066406-.085938.089844-.136719l.015624-.042969.011719-.023437.007813-.03125c3.6875-9.097656 6.398437-18.558594 8.089844-28.226563h2.324218c51.84375 0 93.867188-42.023437 93.867188-93.867187 0-51.839844-42.023438-93.863282-93.867188-93.863282h-2.976562c1.949218-6.945312 2.949218-14.121093 2.976562-21.335937.078125-28.269531-14.617187-54.527344-38.753906-69.246094-24.136719-14.714843-54.207031-15.757812-79.304688-2.746093-21.382812-37.160157-60.933593-60.125-103.808593-60.273438-12.265625.167969-24.445313 2.054688-36.1875 5.613281-2.230469.6875-4.078125 2.261719-5.105469 4.359375-1.03125 2.09375-1.144531 4.519532-.324219 6.707032 1.625 4.238281 6.246094 6.507812 10.59375 5.203124 10.070313-3.027343 20.511719-4.648437 31.023438-4.816406 39.574219.132813 75.578125 22.910156 92.644531 58.617188.117188.25.304688.433594.445312.667968.078126.132813.082032.285157.167969.414063.085938.128906.222657.191406.316407.3125.519531.707031 1.144531 1.328125 1.855468 1.839844.113282.082031.199219.191406.316406.269531.828126.515625 1.738282.890625 2.691407 1.097656.246093.058594.492187.070313.746093.105469.386719.082031.777344.136719 1.167969.164063.234375 0 .460938-.136719.695313-.15625.695312-.066407 1.378906-.21875 2.035156-.460938.316406-.050781.625-.117188.929688-.207031.199218-.09375.320312-.273438.507812-.378907.1875-.109374.394531-.117187.574219-.238281 19.636719-13.164062 44.929687-14.441406 65.792969-3.320312 20.859374 11.121093 33.898437 32.832031 33.914062 56.472656.023438 9.082031-1.925781 18.0625-5.707031 26.316406l-.027344.113281c-.277344 1.101563-.515625 2.207032-.726563 3.320313l-.023437.117187c.050781.402344.128906.796876.238281 1.1875.054688.660157.1875 1.316407.394532 1.949219.546874.9375 1.132812 1.851563 1.761718 2.738281.496094.464844 1.046875.863282 1.636719 1.195313.300781.253906.617187.484375.953125.691406l.109375.023438c1.066406.480469 2.21875.730469 3.382813.742187l.054687.007813h15.019531c42.417969 0 76.800782 34.382812 76.800782 76.796875 0 42.417968-34.382813 76.800781-76.800782 76.800781h-.398437c.160156-2.835937.398437-5.660156.398437-8.53125 0-80.121094-64.949218-145.066406-145.066406-145.066406s-145.066406 64.945312-145.066406 145.066406c0 2.871094.285156 5.691406.449218 8.53125h-.449218c-31.0625.007813-59.070313-18.703125-70.957032-47.402344-11.882812-28.699219-5.308593-61.734375 16.660157-83.691406 5.617187-5.628906 12.085937-10.335937 19.167969-13.949219 5.429687 9.457032 12.152343 18.117188 19.96875 25.722656 3.378906 3.285157 8.78125 3.207032 12.066406-.175781 3.28125-3.378906 3.203125-8.78125-.175782-12.066406-19.753906-19.242187-30.886718-45.65625-30.863281-73.238281.085938-19.585938 5.734375-38.746094 16.28125-55.253906 1.375-2.238282 2.890625-4.386719 4.535157-6.433594 2.535156-3.714844 1.933593-8.738282-1.40625-11.75-1.757813-1.558594-4.09375-2.289063-6.425782-2.011719-2.328125.273437-4.429687 1.535156-5.773437 3.457031-1.910157 2.398438-3.671875 4.90625-5.285157 7.511719-12.316406 19.257813-18.902343 41.621094-18.992187 64.480469.015625 15.21875 2.972656 30.285156 8.710937 44.378906zm74.890626 212.488281 104.132812-47.34375v114.429688c-43.925781-3-83.242188-28.328125-104.132812-67.085938zm240.664062-60.597656c.003906 13.410156-2.140625 26.730469-6.355469 39.460937l-116.386719-46.550781-78.367187-97.957031c39.117187-27.242188 90.132813-30.484375 132.386719-8.414062 42.25 22.070312 68.734375 65.792968 68.722656 113.460937zm-214.355469-94.289063 72.84375 91.058594-106.117187 48.25c-5.519532-14.371094-8.355469-29.628906-8.371094-45.019531-.011719-35.890625 15.105469-70.125 41.644531-94.289063zm0 0"/><path d="m293.304688 359.007812c-2.628907-1.050781-5.609376-.730468-7.957032.855469-2.34375 1.589844-3.746094 4.238281-3.746094 7.070313v136.53125c0 4.714844 3.820313 8.535156 8.53125 8.535156 59.386719.226562 112.835938-35.984375 134.652344-91.222656 1.742188-4.375-.386718-9.332032-4.757812-11.082032zm5.363281 135.644532v-115.113282l106.847656 42.738282c-19.796875 41.769531-60.714844 69.488281-106.847656 72.375zm0 0"/><path d="m53.675781 258.476562c-3.324219 3.347657-3.3125 8.753907.023438 12.089844 3.335937 3.335938 8.742187 3.347656 12.09375.027344 3.324219-3.351562 3.3125-8.757812-.023438-12.09375-3.339843-3.335938-8.746093-3.347656-12.09375-.023438zm0 0"/><path d="m99.925781 258.476562c-2.894531-2.957031-7.476562-3.445312-10.933593-1.175781-3.457032 2.273438-4.820313 6.675781-3.257813 10.503907 1.566406 3.828124 5.621094 6.015624 9.679687 5.21875 4.058594-.796876 6.988282-4.355469 6.988282-8.488282-.03125-2.261718-.914063-4.425781-2.476563-6.058594zm0 0"/><path d="m87.808594 292.609375c-3.3125 3.339844-3.296875 8.730469.03125 12.050781 3.332031 3.320313 8.722656 3.320313 12.054687 0 3.328125-3.320312 3.34375-8.710937.03125-12.050781-3.425781-3.148437-8.691406-3.148437-12.117187 0zm0 0"/><path d="m418.132812 273.066406c4.023438-.039062 7.460938-2.910156 8.214844-6.859375.753906-3.953125-1.378906-7.886719-5.105468-9.410156-3.722657-1.519531-8-.203125-10.226563 3.144531-2.226563 3.351563-1.785156 7.804688 1.058594 10.652344 1.636719 1.554688 3.800781 2.4375 6.058593 2.472656zm0 0"/><path d="m412.074219 304.617188c2.898437 2.953124 7.476562 3.445312 10.933593 1.171874 3.457032-2.269531 4.820313-6.671874 3.257813-10.5-1.566406-3.828124-5.621094-6.015624-9.679687-5.21875-4.058594.796876-6.984376 4.355469-6.984376 8.488282.03125 2.261718.917969 4.421875 2.472657 6.058594zm0 0"/><path d="m458.324219 270.59375c2.957031-2.898438 3.445312-7.480469 1.171875-10.933594-2.269532-3.457031-6.671875-4.824218-10.5-3.257812-3.832032 1.5625-6.015625 5.617187-5.21875 9.679687.796875 4.058594 4.351562 6.984375 8.488281 6.984375 2.261719-.035156 4.421875-.917968 6.058594-2.472656zm0 0"/><path d="m85.332031 409.601562c0-4.714843-3.820312-8.535156-8.53125-8.535156-4.714843 0-8.535156 3.820313-8.535156 8.535156v8.53125c0 4.714844 3.820313 8.535157 8.535156 8.535157 4.710938 0 8.53125-3.820313 8.53125-8.535157zm0 0"/><path d="m76.800781 469.332031c4.710938 0 8.53125-3.820312 8.53125-8.53125v-8.535156c0-4.710937-3.820312-8.53125-8.53125-8.53125-4.714843 0-8.535156 3.820313-8.535156 8.53125v8.535156c0 4.710938 3.820313 8.53125 8.535156 8.53125zm0 0"/><path d="m59.734375 426.667969h-8.535156c-4.710938 0-8.53125 3.820312-8.53125 8.53125 0 4.714843 3.820312 8.535156 8.53125 8.535156h8.535156c4.710937 0 8.53125-3.820313 8.53125-8.535156 0-4.710938-3.820313-8.53125-8.53125-8.53125zm0 0"/><path d="m93.867188 443.734375h8.535156c4.710937 0 8.53125-3.820313 8.53125-8.535156 0-4.710938-3.820313-8.53125-8.53125-8.53125h-8.535156c-4.710938 0-8.535157 3.820312-8.535157 8.53125 0 4.714843 3.824219 8.535156 8.535157 8.535156zm0 0"/><path d="m469.332031 76.800781c18.851563 0 34.136719-15.28125 34.136719-34.132812 0-18.851563-15.285156-34.132813-34.136719-34.132813-18.847656 0-34.132812 15.28125-34.132812 34.132813.023437 18.839843 15.292969 34.109375 34.132812 34.132812zm0-51.199219c9.425781 0 17.070313 7.640626 17.070313 17.066407s-7.644532 17.066406-17.070313 17.066406-17.066406-7.640625-17.066406-17.066406c.011719-9.421875 7.644531-17.058594 17.066406-17.066407zm0 0"/><path d="m34.132812 68.265625c18.851563 0 34.132813-15.28125 34.132813-34.132813 0-18.851562-15.28125-34.132812-34.132813-34.132812-18.851562 0-34.132812 15.28125-34.132812 34.132812.0234375 18.84375 15.292969 34.113282 34.132812 34.132813zm0-51.199219c9.425782 0 17.066407 7.640625 17.066407 17.066406 0 9.425782-7.640625 17.066407-17.066407 17.066407-9.425781 0-17.066406-7.640625-17.066406-17.066407.011719-9.421874 7.644532-17.058593 17.066406-17.066406zm0 0"/></g></svg>