<svg xmlns="http://www.w3.org/2000/svg" id="checklist" viewBox="0 0 512 512"><title>checklist</title><g transform="translate(0 1)"> <path style="fill:#D4E1F4;" d="M503.783,79.461v392.098c0,12.689-7.68,23.04-17.067,23.04H25.6 c-9.387,0-17.067-10.377-17.067-23.04V79.461H503.783z"/> <path style="fill:#F4F4F4;" d="M478.166,79.461v392.098c0,12.689-7.68,23.04-17.067,23.04H25.6 c-9.387,0-17.067-10.377-17.067-23.04V79.461H478.166z"/> <path style="fill:#A4C2F7;" d="M503.783,29.473V75.8H0V29.473c0.59-9.034,8.334-15.914,17.374-15.437H486.4 C495.444,13.554,503.193,20.436,503.783,29.473z"/> <path style="fill:#E3E7F2;" d="M477.731,29.473V75.8H0V29.473c0.59-9.034,8.334-15.914,17.374-15.437h442.982 C469.395,13.564,477.136,20.441,477.731,29.473z"/> <g> <path style="fill:#A4C2F7;" d="M184.576,138.264v50.347c-0.056,9.247-7.563,16.716-16.811,16.725H83.883v-83.883h83.883 C177.031,121.5,184.53,128.999,184.576,138.264z"/> <path style="fill:#A4C2F7;" d="M92.28,121.471v83.883H67.107c-9.247-0.037-16.731-7.529-16.759-16.777V138.23 c0.028-9.254,7.523-16.748,16.777-16.777L92.28,121.471z"/> <path style="fill:#A4C2F7;" d="M184.576,264.046v50.347c-0.047,9.265-7.546,16.764-16.811,16.811H83.883V247.32h83.883 C177.013,247.329,184.52,254.799,184.576,264.046z"/> <path style="fill:#A4C2F7;" d="M92.28,247.32v83.891H67.107c-9.257-0.038-16.745-7.545-16.759-16.802v-50.347 c0.047-9.234,7.526-16.705,16.759-16.742H92.28z"/> <path style="fill:#A4C2F7;" d="M184.576,389.912v50.347c-0.056,9.247-7.563,16.716-16.811,16.725H83.883v-83.883h83.883 C177.031,373.148,184.53,380.647,184.576,389.912z"/> </g> <g> <path style="fill:#E3E7F2;" d="M158.976,138.264v50.347c-0.056,9.247-7.563,16.716-16.811,16.725H83.883v-83.883h58.283 C151.431,121.5,158.93,128.999,158.976,138.264z"/> <path style="fill:#E3E7F2;" d="M158.976,264.046v50.347c-0.047,9.265-7.546,16.764-16.811,16.811H83.883V247.32h58.283 C151.413,247.329,158.92,254.799,158.976,264.046z"/> <path style="fill:#E3E7F2;" d="M158.976,389.912v50.347c-0.056,9.247-7.563,16.716-16.811,16.725H83.883v-83.883h58.283 C151.431,373.148,158.93,380.647,158.976,389.912z"/> </g> <path style="fill:#A4C2F7;" d="M92.28,373.127v83.891H67.107c-9.247-0.037-16.731-7.529-16.759-16.777v-50.347 c0.023-9.257,7.519-16.757,16.777-16.785L92.28,373.127z"/> <g> <path style="fill:#FFFFFF;" d="M8.534,79.461v392.098c0,12.689,7.68,23.04,17.067,23.04h25.6 c-9.387,0-17.067-10.377-17.067-23.04V79.461H8.534z"/> <path style="fill:#FFFFFF;" d="M25.6,29.473c0.59-9.034,8.334-15.914,17.374-15.437h-25.6C8.334,13.559,0.59,20.439,0,29.473 V75.8h25.6V29.473z"/> </g> </g><g> <polygon style="fill:#FFFFFF;" points="0,486.4 0,375.467 0,25.6 17.067,25.6 17.067,375.467 17.067,486.4 "/> <g> <path style="fill:#428DFF;" d="M5.291,425.984c0.484,0.247,1.001,0.419,1.536,0.512c0.564,0.095,1.135,0.152,1.707,0.171 c2.259-0.033,4.422-0.917,6.059-2.475c0.771-0.816,1.38-1.772,1.792-2.816c1.287-3.183,0.586-6.825-1.792-9.301 c-0.816-0.771-1.772-1.38-2.816-1.792c-1.026-0.437-2.128-0.669-3.243-0.683c-2.259,0.033-4.422,0.917-6.059,2.475 c-3.3,3.365-3.3,8.752,0,12.117l1.28,1.024C4.231,425.539,4.747,425.798,5.291,425.984z"/> <path style="fill:#428DFF;" d="M486.4,0H25.6C11.462,0,0,11.462,0,25.6V384c0,4.713,3.821,8.533,8.533,8.533 s8.533-3.821,8.533-8.533V85.334h477.867V486.4c0,4.713-3.821,8.533-8.533,8.533H25.6c-4.713,0-8.533-3.82-8.533-8.533v-34.133 c0-4.713-3.821-8.533-8.533-8.533S0,447.554,0,452.267V486.4C0,500.539,11.462,512,25.6,512h460.8 c14.138,0,25.6-11.462,25.6-25.6V25.6C512,11.462,500.539,0,486.4,0z M17.067,68.267V25.6c0-4.713,3.821-8.533,8.533-8.533h460.8 c4.713,0,8.533,3.821,8.533,8.533v42.667H17.067z"/> <path style="fill:#428DFF;" d="M59.734,34.134H51.2c-4.713,0-8.533,3.821-8.533,8.533S46.488,51.2,51.2,51.2h8.533 c4.713,0,8.533-3.821,8.533-8.533S64.447,34.134,59.734,34.134z"/> <path style="fill:#428DFF;" d="M102.4,34.134h-8.533c-4.713,0-8.533,3.821-8.533,8.533s3.821,8.533,8.533,8.533h8.533 c4.713,0,8.533-3.821,8.533-8.533S107.113,34.134,102.4,34.134z"/> <path style="fill:#428DFF;" d="M145.067,34.134h-8.533c-4.713,0-8.533,3.821-8.533,8.533s3.821,8.533,8.533,8.533h8.533 c4.713,0,8.533-3.821,8.533-8.533S149.78,34.134,145.067,34.134z"/> <path style="fill:#428DFF;" d="M460.801,34.134h-8.533c-4.713,0-8.533,3.821-8.533,8.533s3.82,8.533,8.533,8.533h8.533 c4.713,0,8.533-3.821,8.533-8.533S465.513,34.134,460.801,34.134z"/> <path style="fill:#428DFF;" d="M68.267,213.334h102.4c14.138,0,25.6-11.462,25.6-25.6v-51.2c0-14.138-11.462-25.6-25.6-25.6 h-102.4c-14.138,0-25.6,11.462-25.6,25.6v51.2C42.667,201.872,54.129,213.334,68.267,213.334z M179.2,136.534v51.2 c0,4.713-3.821,8.533-8.533,8.533H102.4V128h68.267C175.38,128,179.2,131.821,179.2,136.534z M59.734,136.534 c0-4.713,3.821-8.533,8.533-8.533h17.067v68.267H68.267c-4.713,0-8.533-3.82-8.533-8.533V136.534z"/> <path style="fill:#428DFF;" d="M128,170.667h25.6c4.713,0,8.533-3.821,8.533-8.533s-3.821-8.533-8.533-8.533H128 c-4.713,0-8.533,3.82-8.533,8.533S123.288,170.667,128,170.667z"/> <path style="fill:#428DFF;" d="M42.667,315.734c0,14.138,11.462,25.6,25.6,25.6h102.4c14.138,0,25.6-11.462,25.6-25.6v-51.2 c0-14.138-11.462-25.6-25.6-25.6h-102.4c-14.138,0-25.6,11.462-25.6,25.6V315.734z M179.2,264.534v51.2 c0,4.713-3.821,8.533-8.533,8.533H102.4V256h68.267C175.38,256,179.2,259.821,179.2,264.534z M59.734,264.534 c0-4.713,3.821-8.533,8.533-8.533h17.067v68.267H68.267c-4.713,0-8.533-3.82-8.533-8.533V264.534z"/> <path style="fill:#428DFF;" d="M128,298.667h25.6c4.713,0,8.533-3.821,8.533-8.533s-3.821-8.533-8.533-8.533H128 c-4.713,0-8.533,3.82-8.533,8.533S123.288,298.667,128,298.667z"/> <path style="fill:#428DFF;" d="M42.667,443.734c0,14.138,11.462,25.6,25.6,25.6h102.4c14.138,0,25.6-11.462,25.6-25.6v-51.2 c0-14.138-11.462-25.6-25.6-25.6h-102.4c-14.138,0-25.6,11.462-25.6,25.6V443.734z M179.2,392.534v51.2 c0,4.713-3.821,8.533-8.533,8.533H102.4V384h68.267C175.38,384,179.2,387.821,179.2,392.534z M59.734,392.534 c0-4.713,3.821-8.533,8.533-8.533h17.067v68.267H68.267c-4.713,0-8.533-3.821-8.533-8.533V392.534z"/> <path style="fill:#428DFF;" d="M128,426.667h25.6c4.713,0,8.533-3.821,8.533-8.533c0-4.713-3.821-8.533-8.533-8.533H128 c-4.713,0-8.533,3.821-8.533,8.533C119.467,422.846,123.288,426.667,128,426.667z"/> <path style="fill:#428DFF;" d="M230.4,170.667h110.933c4.713,0,8.533-3.821,8.533-8.533s-3.82-8.533-8.533-8.533H230.4 c-4.713,0-8.533,3.82-8.533,8.533S225.688,170.667,230.4,170.667z"/> <path style="fill:#428DFF;" d="M230.4,298.667h110.933c4.713,0,8.533-3.821,8.533-8.533s-3.82-8.533-8.533-8.533H230.4 c-4.713,0-8.533,3.82-8.533,8.533S225.688,298.667,230.4,298.667z"/> <path style="fill:#428DFF;" d="M230.4,426.667h110.933c4.713,0,8.533-3.821,8.533-8.533c0-4.713-3.82-8.533-8.533-8.533H230.4 c-4.713,0-8.533,3.821-8.533,8.533C221.867,422.846,225.688,426.667,230.4,426.667z"/> <path style="fill:#428DFF;" d="M395.034,185.233c3.332,3.331,8.734,3.331,12.066,0l42.667-42.667 c3.234-3.348,3.188-8.671-0.104-11.962c-3.292-3.292-8.614-3.338-11.962-0.104l-36.634,36.634l-11.034-11.034 c-3.348-3.234-8.671-3.188-11.962,0.104c-3.292,3.292-3.338,8.614-0.104,11.962L395.034,185.233z"/> <path style="fill:#428DFF;" d="M377.967,296.167l17.067,17.067c3.332,3.331,8.734,3.331,12.066,0l42.667-42.667 c3.234-3.348,3.188-8.671-0.104-11.962c-3.292-3.292-8.614-3.338-11.962-0.104l-36.634,36.634l-11.034-11.034 c-3.348-3.234-8.671-3.188-11.962,0.104C374.78,287.496,374.734,292.818,377.967,296.167z"/> <path style="fill:#428DFF;" d="M377.967,424.167l17.067,17.067c3.332,3.331,8.734,3.331,12.066,0l42.667-42.667 c3.234-3.348,3.188-8.671-0.104-11.962c-3.292-3.292-8.614-3.338-11.962-0.104l-36.634,36.634l-11.034-11.034 c-3.348-3.234-8.671-3.188-11.962,0.104C374.78,415.496,374.734,420.818,377.967,424.167z"/> </g> </g></svg>