<svg xmlns="http://www.w3.org/2000/svg" id="commerce-and-shopping" viewBox="0 0 60 60"><title>commerce-and-shopping</title><g id="088---Online-Shopping" fill="none"><g id="Icons" transform="translate(1 1)"><path id="Shape" d="m42 58h-26c-.3125741.0091729-.611443-.1284007-.8077466-.3718172-.1963037-.2434165-.267438-.564647-.1922534-.8681828l1.5-6c.1128155-.4571833.5293028-.7737136 1-.76h23c.4706972-.0137136.8871845.3028167 1 .76l1.5 6c.0751846.3035358.0040503.6247663-.1922534.8681828-.1963036.2434165-.4951725.3809901-.8077466.3718172z" fill="#7facfa"/><path id="Shape" d="m39 58h-23c-.3125741.0091729-.611443-.1284007-.8077466-.3718172-.1963037-.2434165-.267438-.564647-.1922534-.8681828l1.5-6c.1128155-.4571833.5293028-.7737136 1-.76h20c.4706972-.0137136.8871845.3028167 1 .76l1.5 6c.0751846.3035358.0040503.6247663-.1922534.8681828-.1963036.2434165-.4951725.3809901-.8077466.3718172z" fill="#a4c2f7"/><path id="Shape" d="m58 37v5c0 1.6568542-1.3431458 3-3 3h-52c-1.65685425 0-3-1.3431458-3-3v-5z" fill="#7facfa"/><path id="Shape" d="m55 37v5c0 1.6568542-1.3431458 3-3 3h-49c-1.65685425 0-3-1.3431458-3-3v-5z" fill="#a4c2f7"/><path id="Shape" d="m21 45h16v8c0 .5522847-.4477153 1-1 1h-14c-.5522847 0-1-.4477153-1-1z" fill="#7facfa"/><path id="Shape" d="m58 3v34h-58v-34c0-1.65685425 1.34314575-3 3-3h52c1.6568542 0 3 1.34314575 3 3z" fill="#cad9fc"/><path id="Shape" d="m55 3v34h-55v-34c0-1.65685425 1.34314575-3 3-3h49c1.6568542 0 3 1.34314575 3 3z" fill="url(#linearGradient-1)"/><path id="Shape" d="m21 10c-.0131804.3378252-.0634829.6731753-.15 1-.7958647 1.9452435-2.7540808 3.1565112-4.85 3-2.57 0-5-1.65-5-4z" fill="#cad9fc"/><rect id="Rectangle-path" fill="#cad9fc" height="4" rx="1" width="22" x="32" y="17"/><rect id="Rectangle-path" fill="#e8edfc" height="4" rx="1" width="19" x="32" y="17"/><path id="Shape" d="m27.29 17.35-4 4-.29-.35v12h-14v-12l-.32.32-4-4c-.18931265-.1877666-.29579832-.4433625-.29579832-.71s.10648567-.5222334.29579832-.71l4.32-5.18c.38738408-.4652556.96466594-.72999637 1.57-.72h.43c.0215926.4118789.0989649.8189243.23 1.21.8849531 1.8039729 2.7638334 2.9029406 4.77 2.79 2.26 0 5-1.44 5-4h.43c.5948645-.00096606 1.159287.2629198 1.54.72l4.32 5.21c.1893127.1877666.2957983.4433625.2957983.71s-.1064856.5222334-.2957983.71z" fill="#e8edfc"/><path id="Shape" d="m27.29 15.93-4.29-5.21c-.3873841-.4652556-.9646659-.72999637-1.57-.72h-.43c-.0001104.5289523-.126987 1.0501753-.37 1.52l3.66 4.41c.1893127.1877666.2957983.4433625.2957983.71s-.1064856.5222334-.2957983.71l-4 4-.29-.35v12h3v-12l.32.32 4-4c.3664107-.3956362.3531394-1.0105411-.03-1.39z" fill="#cad9fc"/></g><path id="Shape" d="m3 42v-39c0-1.65685425 1.34314575-3 3-3h-3c-1.65685425 0-3 1.34314575-3 3v39c0 1.6568542 1.34314575 3 3 3h3c-1.65685425 0-3-1.3431458-3-3z" fill="#fff" transform="translate(1 1)"/><path id="Rectangle-path" d="m0 9h2v8h-2z" fill="#fff"/><g fill="#428dff"><circle id="Oval" cx="1" cy="13" r="1"/><path id="Shape" d="m56 0h-52c-2.209139 0-4 1.790861-4 4v5c0 .55228475.44771525 1 1 1s1-.44771525 1-1v-5c0-1.1045695.8954305-2 2-2h52c1.1045695 0 2 .8954305 2 2v33h-56v-20c0-.5522847-.44771525-1-1-1s-1 .4477153-1 1v26c0 2.209139 1.790861 4 4 4h17v3h-2.5c-.9191073.0007104-1.7194145.6277552-1.94 1.52l-1.5 6c-.1475239.5967167-.0124608 1.2281269.3662676 1.7122745.3787284.4841477.9590505.7672505 1.5737324.7677255h26c.6146819-.000475 1.195004-.2835778 1.5737324-.7677255.3787284-.4841476.5137915-1.1155578.3662676-1.7122745l-1.5-6c-.2205855-.8922448-1.0208927-1.5192896-1.94-1.52h-2.5v-3h17c2.209139 0 4-1.790861 4-4v-39c0-2.209139-1.790861-4-4-4zm-14.5 52 1.5 6h-26l1.5-6h2.5v2c0 1.1045695.8954305 2 2 2h14c1.1045695 0 2-.8954305 2-2v-2zm-18.5 2v-7h14v7zm35-11c0 1.1045695-.8954305 2-2 2h-52c-1.1045695 0-2-.8954305-2-2v-4h56z"/><path id="Shape" d="m28 43h4c.5522847 0 1-.4477153 1-1s-.4477153-1-1-1h-4c-.5522847 0-1 .4477153-1 1s.4477153 1 1 1z"/><path id="Shape" d="m41.58 10.19c-.4478544-.31815206-1.068498-.21545564-1.39.23l-4.7 6.58h-1.49c-1.1045695 0-2 .8954305-2 2v2c.0041513.7634356.4425638 1.4579119 1.13 1.79l1.59 8.75c.263902 1.4432776 1.5329888 2.4839288 3 2.46h12.61c1.4670112.0239288 2.736098-1.0167224 3-2.46l1.59-8.75c.6680111-.3460496 1.0853175-1.0376963 1.08-1.79v-2c0-1.1045695-.8954305-2-2-2h-1.49l-4.7-6.58c-.192624-.3252383-.5521755-.5140678-.9292782-.48803898s-.7073009.26246698-.8534132.61108598c-.1461122.3486189-.0831645.7498314.1626914 1.036953l3.87 5.42h-12.12l3.87-5.42c.3181521-.4478544.2154556-1.068498-.23-1.39zm-6.38 12.81h3.87l.29 4h-3.43zm2.47 9c-.4890037.0079763-.9120327-.3389075-1-.82l-.38-2.18h3.22l.21 3zm8.6 0h-4.54l-.22-3h5zm.36-5h-5.26l-.29-4h5.84zm4.68 4.18c-.0879673.4810925-.5109963.8279763-1 .82h-2l.21-3h3.22zm.76-4.18h-3.43l.29-4h3.87zm1.93-8v2h-20v-2z"/><path id="Shape" d="m5 16.22c-.3786253.3755332-.59159665.8867249-.59159665 1.42s.21297135 1.0444668.59159665 1.42l4 4c.1.1 0-.7 0 11 0 .5522847.44771525 1 1 1h14c.5522847 0 1-.4477153 1-1 0-11.69-.07-10.87 0-11l4-4c.7598885-.7577138.786366-1.980093.06-2.77l-4.32-5.21c-.5710695-.6856203-1.4177033-1.08144909-2.31-1.08h-10.86c-.8922967-.00144909-1.73893053.3943797-2.31 1.08zm15.76-4.22c-1.29 2.67-6.25 2.64-7.52 0zm-9.62.09c.4419314 1.4770005 1.5199698 2.67971 2.94 3.28.0981636.070727.2109246.118565.33.14 1.6644886.6553194 3.5155114.6553194 5.18 0 .1030119-.0225055.201205-.0631371.29-.12 1.4474283-.5899516 2.5502563-1.8030624 3-3.3.28.13 0-.15 4.72 5.55l-2.6 2.59v-.73c0-.5522847-.4477153-1-1-1s-1 .4477153-1 1v13.5h-12v-13.5c0-.5522847-.4477153-1-1-1-.55228475 0-1 .4477153-1 1v.68l-2.52-2.61c4.7-5.67 4.38-5.35 4.66-5.48z"/><path id="Shape" d="m7 4h-2c-.55228475 0-1 .44771525-1 1s.44771525 1 1 1h2c.55228475 0 1-.44771525 1-1s-.44771525-1-1-1z"/><path id="Shape" d="m13 6c.5522847 0 1-.44771525 1-1s-.4477153-1-1-1h-2c-.5522847 0-1 .44771525-1 1s.4477153 1 1 1z"/><path id="Shape" d="m19 6c.5522847 0 1-.44771525 1-1s-.4477153-1-1-1h-2c-.5522847 0-1 .44771525-1 1s.4477153 1 1 1z"/><path id="Shape" d="m55 6c.5522847 0 1-.44771525 1-1s-.4477153-1-1-1h-2c-.5522847 0-1 .44771525-1 1s.4477153 1 1 1z"/></g></g></svg>